<?xml version="1.0" standalone="no"?><!DOCTYPE svg PUBLIC "-//W3C//DTD SVG 1.1//EN" "http://www.w3.org/Graphics/SVG/1.1/DTD/svg11.dtd"><svg t="1628498287374" class="icon" viewBox="0 0 1701 1024" version="1.1" xmlns="http://www.w3.org/2000/svg" p-id="2131" xmlns:xlink="http://www.w3.org/1999/xlink" width="332.2265625" height="200"><defs><style type="text/css"></style></defs><path d="M1629.107315 220.089581v-13.882859a39.057108 39.057108 0 0 0-15.733906-31.097602l-81.446102-47.571928A108.841609 108.841609 0 0 0 1433.451565 0h-1.110628v0.925524a108.656504 108.656504 0 0 0 9.255239 150.490184c-7.404191 8.329715-40.723051 46.09109-47.757033 53.125071a111.062867 111.062867 0 0 1-156.413537 0A501.078633 501.078633 0 0 0 388.905305 448.693981c0 3.331886-77.929111 331.522657-97.735322 384.832833-29.986974 81.260997-101.252313 136.052012-176.960168 136.052011a395.1987 395.1987 0 0 1-47.942137-4.997829c-29.801869-4.25741-55.531433-7.959505-63.676044 0a7.589296 7.589296 0 0 0-2.591466 5.738248c0 21.101945 79.224845 53.680386 129.573344 53.680386a255.999907 255.999907 0 0 0 227.678876-138.088164c26.840193-51.274023 166.5943-347.626772 183.438835-384.092414a177.885691 177.885691 0 0 0 107.360771 81.075893 72.561073 72.561073 0 0 1 52.939966 59.048424l-148.083822 306.533512 29.246555 67.563243v1.295734h384.462623V999.565799h-1.110628c-3.331886-2.406362-81.816312-55.531433-124.575516-55.531433l-170.851709 15.919011-12.77223-12.77223L949.217467 533.10176a181.957996 181.957996 0 0 0 15.548801-42.388995 439.438742 439.438742 0 0 0 92.552389 20.546631 407.230511 407.230511 0 0 0 49.422976 2.221257h39.427318v9.440344l-6.293563 20.54663L1073.792982 629.356244h-62.565414v20.176421l27.210402 28.69124h63.861148l24.989145-23.323202L1233.72351 499.7829c84.963093-22.397678 151.971022-68.303663 223.606572-153.822071l18.510477-22.027468h90.146027l65.156882 22.582783h40.723051l28.506136-33.874175v-18.510477l-12.587125-18.510478z" fill="#1296db" p-id="2132"></path></svg>